#!OML:ASF H:\Pregnant\Project 1\Capture day 1\Session 1\femalepreg.ASF
:FULLY-SPECIFIED
:DEGREES
594
root -0.770842 16.3162 -30.0557 17.2828 -0.0523655 0.392332
lowerback -12.087 1.35825 10.6762
upperback -6.04896 0.619374 2.61003
thorax 0.437971 0.125507 -3.1768
lowerneck -19.4738 -0.200524 1.31628
upperneck 25.711 0.645929 -4.69902
head 11.6574 -0.196823 -1.86702
rclavicle -1.16041e-014 6.04305e-014
rhumerus -29.7549 -3.8966 -77.2671
rradius 26.5818
rwrist -10.193
rhand -18.1992 -19.9085
rfingers 7.12502
rthumb 8.07809 -49.7341
lclavicle -1.16041e-014 6.04305e-014
lhumerus -48.9937 -5.70776 84.9792
lradius 32.0204
lwrist 37.0499
lhand -15.7208 -2.27512
lfingers 7.12502
lthumb 10.4695 27.4442
rfemur -34.8405 13.8346 17.2521
rtibia 36.0523
rfoot -10.7398 -13.9484
rtoes -24.6535
lfemur -33.4699 -10.1815 -19.2813
ltibia 53.4731
lfoot -7.81347 -1.91316
ltoes -15.9513
595
root -0.758448 16.3144 -30.1137 17.3639 -0.0327436 0.293042
lowerback -12.2103 1.32061 10.5404
upperback -6.1456 0.57601 2.56105
thorax 0.397517 0.100994 -3.15781
lowerneck -19.5581 -0.0717267 1.5451
upperneck 25.9301 0.735647 -4.61035
head 11.7615 -0.124224 -1.86411
rclavicle 1.963e-015 -2.22639e-014
rhumerus -30.3943 -4.29545 -77.0861
rradius 25.6843
rwrist -9.37447
rhand -17.9648 -20.1173
rfingers 7.12502
rthumb 8.30428 -49.9341
lclavicle 1.963e-015 -2.22639e-014
lhumerus -48.7083 -5.71773 84.7045
lradius 31.9875
lwrist 37.6505
lhand -17.2336 -2.82426
lfingers 7.12502
lthumb 9.00994 26.9633
rfemur -35.1722 13.8296 17.2296
rtibia 36.0222
rfoot -10.5002 -13.8502
rtoes -24.6753
lfemur -32.6335 -10.3062 -19.1329
ltibia 52.8984
lfoot -7.86454 -1.93477
ltoes -15.9963
596
root -0.746316 16.3118 -30.1739 17.4886 0.0319237 0.206872
lowerback -12.3329 1.25429 10.3564
upperback -6.28816 0.503957 2.52526
thorax 0.304482 0.0597603 -3.10199
lowerneck -19.5968 0.060334 1.78188
upperneck 26.1549 0.827129 -4.52293
head 11.8595 -0.0493804 -1.86222
rclavicle 6.4605e-016 -6.20208e-014
rhumerus -31.1164 -4.64212 -76.8795
rradius 24.8713
rwrist -8.58136
rhand -17.7353 -20.3273
rfingers 7.12502
rthumb 8.52581 -50.1351
lclavicle 6.4605e-016 -6.20208e-014
lhumerus -48.4699 -5.69878 84.4369
lradius 31.9772
lwrist 38.2633
lhand -18.5959 -3.28102
lfingers 7.12502
lthumb 7.69517 26.559
rfemur -35.5711 13.812 17.1854
rtibia 36.0299
rfoot -10.2663 -13.8112
rtoes -24.7615
lfemur -31.8182 -10.4621 -18.9697
ltibia 52.1922
lfoot -7.9357 -1.91462
ltoes -16.1401
597
root -0.733318 16.309 -30.2332 17.5955 0.0940655 0.118182
lowerback -12.4599 1.16354 10.135
upperback -6.38295 0.398939 2.52588
thorax 0.261258 0.00744605 -2.99128
lowerneck -19.7898 0.212551 1.99998
upperneck 26.4112 0.955613 -4.44577
head 12.0032 0.0374596 -1.85663
rclavicle 7.70291e-016 -6.36111e-015
rhumerus -31.7681 -4.90105 -76.6505
rradius 24.1272
rwrist -7.83976
rhand -17.5471 -20.5391
rfingers 7.12502
rthumb 8.7074 -50.3395
lclavicle 7.70291e-016 -6.36111e-015
lhumerus -48.1458 -5.58831 84.1829
lradius 31.9695
lwrist 38.8753
lhand -19.8035 -3.65432
lfingers 7.12502
lthumb 6.52952 26.225
rfemur -35.9472 13.8084 17.1422
rtibia 36.0465
rfoot -10.0471 -13.8095
rtoes -24.9321
lfemur -30.9306 -10.6203 -18.8077
ltibia 51.3397
lfoot -8.0132 -1.84875
ltoes -16.3087
598
root -0.719192 16.3066 -30.2909 17.6698 0.146674 0.0278701
lowerback -12.5707 1.07101 9.90513
upperback -6.46202 0.29368 2.53095
thorax 0.22683 -0.0436559 -2.87137
lowerneck -19.9578 0.3428 2.1617
upperneck 26.6446 1.0576 -4.32848
head 12.1325 0.112712 -1.82932
rclavicle -2.65874e-015 -1.11319e-014
rhumerus -32.4538 -5.11504 -76.4018
rradius 23.4758
rwrist -7.14737
rhand -17.3879 -20.753
rfingers 7.12502
rthumb 8.86106 -50.547
lclavicle -2.65874e-015 -1.11319e-014
lhumerus -47.8117 -5.47448 83.9504
lradius 31.975
lwrist 39.4986
lhand -20.8695 -3.96087
lfingers 7.12502
lthumb 5.50033 25.9477
rfemur -36.2706 13.8227 17.0999
rtibia 36.047
rfoot -9.83065 -13.8331
rtoes -25.1474
lfemur -29.9514 -10.7755 -18.6547
ltibia 50.3198
lfoot -8.09674 -1.7696
ltoes -16.5229
599
root -0.704006 16.3063 -30.3494 17.8718 0.207572 -0.0534018
lowerback -12.8056 0.995226 9.65617
upperback -6.54662 0.197788 2.52822
thorax 0.255527 -0.0871688 -2.74754
lowerneck -20.0486 0.406938 2.16533
upperneck 26.7785 1.07691 -4.08462
head 12.2026 0.153077 -1.73744
rclavicle -5.889e-015 2.06736e-014
rhumerus -33.1204 -5.32531 -76.1457
rradius 22.9171
rwrist -6.5177
rhand -17.2464 -20.9835
rfingers 7.12502
rthumb 8.99759 -50.7716
lclavicle -5.889e-015 2.06736e-014
lhumerus -47.4007 -5.39566 83.7413
lradius 31.9846
lwrist 40.1368
lhand -21.8014 -4.23164
lfingers 7.12502
lthumb 4.60053 25.6984
rfemur -36.736 13.8204 17.0049
rtibia 36.0305
rfoot -9.59358 -13.852
rtoes -25.3695
lfemur -29.1106 -10.9493 -18.481
ltibia 49.1433
lfoot -8.16158 -1.70386
ltoes -16.8366
